<?xml version="1.0" encoding="utf-8"?>
<!-- Generator: Adobe Illustrator 27.6.1, SVG Export Plug-In . SVG Version: 6.00 Build 0)  -->
<svg version="1.1" id="Ebene_1" xmlns="http://www.w3.org/2000/svg" xmlns:xlink="http://www.w3.org/1999/xlink" x="0px" y="0px"
	 viewBox="0 0 780 780" style="enable-background:new 0 0 780 780;" xml:space="preserve">
<style type="text/css">
	.st0{fill:#B3B3B3;}
	.st1{fill:#E6E6E6;}
	.st2{fill:#579573;}
	.st3{fill:#FFFFFF;}
	.st4{fill:#FFB8B8;}
	.st5{fill:#C7A4CA;}
	.st6{opacity:0.2;enable-background:new    ;}
	.st7{fill:#F0F0DF;}
	.st8{fill:#FCE19E;}
	.st9{fill:#FFB6B6;}
	.st10{fill:#CACACA;}
</style>
<g>
	<path class="st0" d="M214.805,624.048l1.408,29.668l0,0.001c0.494,10.442-7.569,19.307-18.01,19.803l-0.614,0.029l-2.304-48.575
		L214.805,624.048z"/>
	<path class="st1" d="M636.609,573.911c-14.13,27.575-32.053,54.244-54.73,78.381c-0.504,0.545-1.012,1.076-1.525,1.617
		l-53.728-25.435c0.329-0.546,0.689-1.159,1.077-1.829c23.08-39.488,162.398-280.37,157.996-334.927
		C686.212,296.217,702.726,445.022,636.609,573.911z"/>
	<path class="st1" d="M592.245,657.199c-0.752,0.427-1.523,0.846-2.299,1.25l-40.305-19.081c0.563-0.4,1.22-0.872,1.974-1.404
		c12.348-8.866,49.066-35.466,84.994-64.053c38.61-30.721,76.316-63.729,81.916-79.485
		C717.388,498.039,682.048,607.865,592.245,657.199z"/>
	<circle class="st2" cx="111.046" cy="610.163" r="62.202"/>
	<path class="st3" d="M135.962,584.06H86.13c-4.585,0.005-8.3,3.721-8.305,8.305v35.594c0.005,4.585,3.721,8.3,8.305,8.305h49.832
		c4.585-0.005,8.3-3.721,8.305-8.305v-35.594C144.263,587.78,140.547,584.065,135.962,584.06z M135.962,588.806
		c0.298,0.001,0.594,0.04,0.882,0.115l-25.792,20.574l-25.641-20.616c0.237-0.049,0.478-0.073,0.719-0.073H135.962z
		 M135.962,631.519H86.13c-1.965-0.002-3.557-1.595-3.559-3.559v-35.275l26.989,21.7c0.866,0.696,2.098,0.698,2.967,0.006
		l26.996-21.535v35.104C139.52,629.925,137.927,631.517,135.962,631.519z"/>
	<path class="st4" d="M351.099,520.358l13.918,0.115c5.348,0.044,9.718-4.255,9.763-9.603c0.004-0.541-0.036-1.082-0.122-1.617l0,0
		c-0.849-5.28-5.817-8.872-11.097-8.024c-0.955,0.153-1.881,0.449-2.748,0.877l-13.125,6.477l-44.892,10.011l-19.232-19.663
		l-11.047,18.195l25.952,20.051L351.099,520.358z"/>
	<path class="st5" d="M348.49,664.154l-16.398,3.153c-11.201-35.306-23.336-68.742-23.335-94.602
		c-15.851,17.641-35.507,27.734-58.653,30.903l2.523-39.102l18.92-10.091l28.957-13.365c2.535-1.17,5.27-1.847,8.059-1.994l0,0
		c11.227-0.591,21.092,7.383,22.869,18.485L348.49,664.154z"/>
	<path class="st5" d="M269.971,598.878l-6.536,4.967c-5.718,4.346-13.312,5.336-19.953,2.601l0,0
		c-18.719-14.031-32.018-9.892-44.071,11.287c-14.457-16.317-18.024-39.883-5.122-64.264l71.582,1.577l14.506-4.415L269.971,598.878
		z"/>
	<path class="st5" d="M246.131,671.95L246.131,671.95c-8.466,2.605-17.581-1.236-21.631-9.113
		c-6.433-5.666-11.861-13.779-16.569-23.644c-3.378-7.237-6.278-14.687-8.683-22.302c-3.258-10.061,2.189-21.053,12.327-24.063
		c0.301-0.089,0.607-0.174,0.915-0.253c13.534-3.475,27.432,4.331,32.058,17.516l13.452,38.339
		c3.342,9.525-1.67,19.956-11.195,23.298h0C246.584,671.806,246.358,671.88,246.131,671.95z"/>
	<path class="st6" d="M205.641,634.827c0,0,15.767,17.659,18.92,27.75"/>
	<path class="st4" d="M144.491,551.487l-5.277,12.879c-2.028,4.949,0.34,10.604,5.289,12.632c0.501,0.205,1.018,0.368,1.546,0.487
		l0,0c5.218,1.173,10.399-2.105,11.572-7.322c0.212-0.943,0.282-1.913,0.207-2.877l-1.137-14.592l7.383-45.398l25.401-10.551
		l-12.788-17.016l-28.257,16.646L144.491,551.487z"/>
	<path class="st7" d="M270.601,553.469c-18.121,30.438-54.246,42.224-85.186,18.39c5.443-17.883,23.015-67.308,11.663-69.2
		c-24.103,10.108-24.138-13.625-28.647-25.502l54.869-20.182l29.642,8.199l6.076,2.156c8.099,2.874,13.553,10.485,13.671,19.078
		C260.238,504.397,251.02,523.586,270.601,553.469z"/>
	<path class="st7" d="M277.539,528.873l-21.758-17.974l7.253-41.94l29.642,31.534L277.539,528.873z"/>
	<path id="bc7f4772-a479-43ba-84b6-0038831d0625-341" class="st0" d="M638.579,240.755h-3.11V155.58
		c0-27.225-22.07-49.295-49.295-49.295l0,0H405.72c-27.225,0-49.295,22.07-49.295,49.295v0v467.274
		c0,27.225,22.07,49.295,49.295,49.295c0,0,0,0,0,0h180.453c27.225,0,49.295-22.07,49.295-49.295c0,0,0,0,0,0V301.383h3.11
		L638.579,240.755z"/>
	<path id="e7549b14-e146-4c1f-8b4f-7638ef62aaf0-342" class="st3" d="M588.163,119.109h-23.555
		c3.65,8.944-0.642,19.153-9.586,22.802c-2.098,0.856-4.342,1.296-6.608,1.296H445.034c-9.66-0.001-17.49-7.832-17.489-17.492
		c0-2.265,0.44-4.508,1.295-6.604h-22.004c-20.332,0-36.814,16.482-36.814,36.814v0v466.586c0,20.332,16.482,36.814,36.814,36.814h0
		h181.32c20.332,0,36.814-16.482,36.814-36.814v0v0l0,0V155.923c0-20.332-16.482-36.814-36.814-36.814l0,0L588.163,119.109
		L588.163,119.109z"/>
	<circle id="f4a12a6a-3235-4aa9-87a4-fdfa38e5097e" class="st1" cx="497.811" cy="613.036" r="20.216"/>
	<path class="st1" d="M415.8,426.081c-1.911,0-3.466,1.775-3.466,3.956c0,2.181,1.555,3.956,3.466,3.956h163.392
		c1.911,0,3.466-1.775,3.466-3.956c0-2.181-1.555-3.956-3.466-3.956H415.8z"/>
	<path class="st1" d="M415.8,519.384c-1.911,0-3.466,1.775-3.466,3.956s1.555,3.956,3.466,3.956h163.392
		c1.911,0,3.466-1.775,3.466-3.956s-1.555-3.956-3.466-3.956H415.8z"/>
	<path class="st1" d="M415.8,449.817c-1.911,0-3.466,1.775-3.466,3.956c0,2.181,1.555,3.956,3.466,3.956h70.308
		c1.911,0,3.466-1.775,3.466-3.956c0-2.181-1.555-3.956-3.466-3.956H415.8z"/>
	<path class="st1" d="M415.8,472.442c-1.911,0-3.466,1.775-3.466,3.956c0,2.181,1.555,3.956,3.466,3.956h163.392
		c1.911,0,3.466-1.775,3.466-3.956c0-2.181-1.555-3.956-3.466-3.956H415.8z"/>
	<path class="st1" d="M415.8,496.177c-1.911,0-3.466,1.775-3.466,3.956s1.555,3.956,3.466,3.956h70.308
		c1.911,0,3.466-1.775,3.466-3.956s-1.555-3.956-3.466-3.956H415.8z"/>
	<path class="st2" d="M446.645,245.95h101.711c2.339,0.003,4.235,1.899,4.238,4.238v105.928c-0.003,2.339-1.899,4.235-4.238,4.238
		H446.645c-2.339-0.003-4.235-1.898-4.238-4.238V250.188C442.41,247.849,444.306,245.953,446.645,245.95z"/>
	<path class="st3" d="M526.684,338.51c1.589,0.001,2.878-1.287,2.879-2.876c0.001-1.589-1.287-2.878-2.876-2.879l0,0h-58.369
		c-1.589-0.001-2.878,1.287-2.879,2.876c-0.001,1.589,1.287,2.878,2.876,2.879H526.684z"/>
	<path class="st3" d="M526.684,321.558c1.589-0.001,2.877-1.29,2.876-2.879c-0.001-1.588-1.288-2.875-2.876-2.876h-58.366
		c-1.589-0.001-2.878,1.287-2.879,2.876c-0.001,1.589,1.287,2.878,2.876,2.879H526.684z"/>
	<path class="st3" d="M497.501,267.794c10.002,0,18.111,8.108,18.111,18.111c0,10.002-8.108,18.111-18.111,18.111
		c-10.002,0-18.111-8.108-18.111-18.111l0,0l0,0C479.401,275.907,487.503,267.806,497.501,267.794z"/>
	<path class="st8" d="M266.423,451.484h-53.766c-2.303-0.003-4.169-1.869-4.172-4.171v-23.175c0-17.151,13.904-31.054,31.054-31.054
		s31.054,13.904,31.054,31.054v23.175C270.592,449.616,268.726,451.482,266.423,451.484z"/>
	
		<ellipse transform="matrix(0.4797 -0.8775 0.8775 0.4797 -247.2231 437.7459)" class="st9" cx="245.476" cy="427.32" rx="22.768" ry="22.768"/>
	<path class="st8" d="M277.941,426.455h-32.877l-0.337-4.72l-1.686,4.72h-5.062l-0.668-9.355l-3.341,9.355h-9.795v-0.463
		c0.015-13.561,11.004-24.55,24.565-24.565h4.635c13.561,0.015,24.55,11.005,24.566,24.565V426.455z"/>
	<path class="st8" d="M244.795,455.81c-0.248,0-0.495-0.022-0.738-0.065l-24.074-4.248v-39.787h26.5l-0.656,0.765
		c-9.128,10.646-2.251,27.909,2.661,37.251c0.739,1.396,0.612,3.093-0.327,4.363C247.381,455.171,246.129,455.81,244.795,455.81z"/>
	<path class="st0" d="M324.946,652.246l29.701-0.001h0.001c10.453,0.001,18.927,8.474,18.928,18.928v0.615l-48.63,0.002
		L324.946,652.246z"/>
	<path class="st10" d="M735.222,673.715H44.778c-0.429,0-0.778-0.348-0.778-0.778s0.348-0.778,0.778-0.778h690.445
		c0.429,0,0.778,0.348,0.778,0.778S735.652,673.715,735.222,673.715z"/>
</g>
</svg>
