<?xml version="1.0" encoding="utf-8"?>
<!-- Generator: Adobe Illustrator 27.6.1, SVG Export Plug-In . SVG Version: 6.00 Build 0)  -->
<svg version="1.1" id="Ebene_1" xmlns="http://www.w3.org/2000/svg" xmlns:xlink="http://www.w3.org/1999/xlink" x="0px" y="0px"
	 viewBox="0 0 780 780" style="enable-background:new 0 0 780 780;" xml:space="preserve">
<style type="text/css">
	.st0{fill:#F2F2F2;}
	.st1{fill:#579573;}
	.st2{fill:#FFFFFF;}
	.st3{fill:#CCCCCC;}
	.st4{fill:#3F3D56;}
	.st5{fill:#FCE19E;}
	.st6{fill:#FFB8B8;}
	.st7{fill:#B3B3B3;}
	.st8{fill:#C7A4CA;}
	.st9{fill:#F0F0DF;}
	.st10{fill:#F9F7D9;}
	.st11{fill:#BFBFC1;}
</style>
<g>
	<rect x="347.905" y="445.976" class="st0" width="316.926" height="205.049"/>
	<path class="st0" d="M692.455,651.107c1.597-19.77,6.007-39.105,13.055-57.231c1.964-5.044,4.126-9.978,6.486-14.8
		c0.252-0.537,0.078-1.208-0.39-1.497c-0.445-0.276-0.999-0.109-1.269,0.383c-8.581,17.564-14.593,36.631-17.795,56.437
		c-0.891,5.531-1.56,11.101-2.008,16.71C690.42,652.522,692.342,652.513,692.455,651.107L692.455,651.107z"/>
	<ellipse class="st0" cx="716.649" cy="568.629" rx="12.168" ry="13.989"/>
	<path class="st0" d="M693.7,651.479c1.036-12.826,3.897-25.369,8.469-37.129c1.274-3.273,2.677-6.473,4.208-9.602
		c0.164-0.348,0.051-0.783-0.252-0.972c-0.289-0.179-0.649-0.071-0.824,0.248c-5.567,11.395-9.467,23.764-11.544,36.613
		c-0.578,3.588-1.012,7.202-1.303,10.841C692.379,652.396,693.626,652.391,693.7,651.479L693.7,651.479z"/>
	<ellipse class="st0" cx="709.395" cy="597.971" rx="7.894" ry="9.075"/>
	<path class="st0" d="M692.126,650.622c-6.045-10.845-10.5-22.758-13.186-35.264c-0.746-3.481-1.353-6.997-1.819-10.546
		c-0.057-0.39-0.379-0.653-0.719-0.587c-0.323,0.063-0.549,0.403-0.517,0.778c1.707,12.921,5.249,25.432,10.486,37.031
		c1.464,3.238,3.055,6.394,4.773,9.469C691.576,652.279,692.557,651.393,692.126,650.622L692.126,650.622z"/>
	<ellipse class="st0" cx="675.875" cy="597.334" rx="7.894" ry="9.075"/>
	<path class="st0" d="M182.868,651.107c-1.597-19.77-6.007-39.105-13.055-57.231c-1.964-5.044-4.126-9.978-6.486-14.8
		c-0.252-0.537-0.078-1.208,0.389-1.497c0.445-0.276,1-0.109,1.27,0.383c8.581,17.564,14.593,36.631,17.795,56.437
		c0.891,5.531,1.56,11.101,2.008,16.71C184.903,652.522,182.981,652.513,182.868,651.107L182.868,651.107z"/>
	<ellipse class="st0" cx="158.674" cy="568.629" rx="12.168" ry="13.989"/>
	<path class="st0" d="M181.623,651.479c-1.036-12.826-3.897-25.369-8.469-37.129c-1.274-3.273-2.677-6.473-4.208-9.602
		c-0.164-0.348-0.051-0.783,0.252-0.972c0.289-0.18,0.649-0.071,0.824,0.249c5.567,11.395,9.467,23.764,11.544,36.613
		c0.578,3.588,1.012,7.202,1.303,10.841C182.943,652.396,181.696,652.391,181.623,651.479L181.623,651.479z"/>
	<ellipse class="st0" cx="165.927" cy="597.971" rx="7.894" ry="9.075"/>
	<path class="st0" d="M183.196,650.622c6.045-10.845,10.5-22.758,13.186-35.264c0.746-3.481,1.353-6.997,1.819-10.546
		c0.057-0.39,0.379-0.653,0.719-0.587c0.323,0.063,0.549,0.403,0.517,0.778c-1.707,12.921-5.249,25.432-10.486,37.031
		c-1.464,3.238-3.055,6.394-4.773,9.469C183.746,652.279,182.766,651.393,183.196,650.622L183.196,650.622z"/>
	<ellipse class="st0" cx="199.447" cy="597.334" rx="7.894" ry="9.075"/>
	<path class="st1" d="M646.72,468.238l0.19,164.47c0.002,6.357-4.473,11.517-10.003,11.533l-59.427,0.1
		c16.729-35.978,26.202-92.607,26.146-136.257c-0.015-17.226-1.537-34.407-4.544-51.283l37.606-0.063
		C642.218,456.736,646.706,461.88,646.72,468.238z"/>
	<path class="st2" d="M728.662,653.2H142.235c-0.522-0.003-0.944-0.492-0.941-1.093c0.003-0.596,0.422-1.078,0.941-1.082h586.428
		c0.522,0.002,0.944,0.49,0.943,1.091C729.603,652.714,729.182,653.198,728.662,653.2z"/>
	<path class="st3" d="M559.635,445.758l-105.911-0.478l10.299-39.391c1.688-6.352,6.776-10.701,12.553-10.73h0.05l60.451,0.273
		c5.796,0.055,10.88,4.456,12.529,10.844L559.635,445.758z"/>
	<path class="st1" d="M618.762,432.279c-6.141,0-11.12,5.724-11.12,12.784h22.24C629.882,438.003,624.903,432.279,618.762,432.279z"
		/>
	<path class="st4" d="M652.917,652.347H360.614c-7.454-0.01-13.495-6.954-13.503-15.523v-177.15
		c0.008-8.569,6.049-15.514,13.503-15.523h292.303c7.454,0.01,13.495,6.954,13.503,15.523v177.15
		C666.412,645.393,660.371,652.337,652.917,652.347z M360.614,445.976c-6.577,0.009-11.907,6.136-11.915,13.697v177.15
		c0.007,7.561,5.337,13.689,11.915,13.697h292.303c6.577-0.008,11.907-6.136,11.915-13.697v-177.15
		c-0.007-7.561-5.337-13.689-11.915-13.697H360.614z"/>
	<path class="st2" d="M519.474,430.909h-25.418c-3.729,0-6.752-3.475-6.752-7.762s3.023-7.762,6.752-7.762h25.418
		c3.729,0,6.752,3.475,6.752,7.762S523.203,430.909,519.474,430.909z"/>
	<path class="st4" d="M506.765,617.647c-33.34,0-60.367-31.071-60.367-69.399s27.027-69.399,60.367-69.399
		s60.367,31.071,60.367,69.399C567.095,586.559,540.09,617.604,506.765,617.647z M506.765,480.676
		c-32.462,0-58.778,30.253-58.778,67.573s26.316,67.573,58.778,67.573s58.778-30.253,58.778-67.573
		C565.507,510.947,539.213,480.718,506.765,480.676z"/>
	<path class="st4" d="M506.765,593.906c-21.934,0-39.715-20.441-39.715-45.657s17.781-45.657,39.715-45.657
		c21.934,0,39.715,20.441,39.715,45.657C546.456,573.452,528.689,593.877,506.765,593.906z M506.765,504.418
		c-21.057,0-38.126,19.624-38.126,43.831s17.07,43.831,38.126,43.831c21.057,0,38.126-19.624,38.126-43.831
		C544.868,524.053,527.812,504.445,506.765,504.418z"/>
	<ellipse class="st3" cx="506.765" cy="548.248" rx="30.183" ry="34.7"/>
	<path class="st2" d="M488.497,548.248c0.001-11.372,7.283-21.009,17.077-22.601c-10.858-1.775-20.911,6.905-22.455,19.387
		c-1.544,12.482,6.006,24.04,16.864,25.815c1.854,0.303,3.737,0.303,5.591,0C495.78,569.257,488.498,559.62,488.497,548.248z"/>
	<path class="st4" d="M638.619,445.976h-39.715v-0.913c0-12.608,8.891-22.829,19.857-22.829c10.967,0,19.858,10.221,19.858,22.829
		V445.976z M600.51,444.15h36.504c-0.439-11.588-8.966-20.574-19.046-20.069C608.502,424.554,600.922,433.268,600.51,444.15z"/>
	<path class="st4" d="M366.969,471.544c-4.387,0-7.943-4.088-7.943-9.131c0-5.043,3.556-9.131,7.943-9.131s7.943,4.088,7.943,9.131
		C374.907,467.454,371.353,471.539,366.969,471.544z M366.969,455.108c-3.509,0-6.354,3.271-6.354,7.305s2.845,7.305,6.354,7.305
		s6.354-3.271,6.354-7.305C373.319,458.38,370.476,455.112,366.969,455.108z"/>
	<ellipse class="st1" cx="366.969" cy="462.413" rx="3.972" ry="4.566"/>
	<ellipse class="st3" cx="387.62" cy="462.413" rx="3.972" ry="4.566"/>
	<ellipse class="st3" cx="408.272" cy="462.413" rx="3.972" ry="4.566"/>
	<path class="st4" d="M387.62,471.544c-4.387,0-7.943-4.088-7.943-9.131c0-5.043,3.556-9.131,7.943-9.131s7.943,4.088,7.943,9.131
		C395.558,467.454,392.005,471.539,387.62,471.544z M387.62,455.108c-3.509,0-6.354,3.271-6.354,7.305s2.845,7.305,6.354,7.305
		s6.354-3.271,6.354-7.305C393.971,458.38,391.128,455.112,387.62,455.108z"/>
	<path class="st4" d="M408.272,471.544c-4.387,0-7.943-4.088-7.943-9.131c0-5.043,3.556-9.131,7.943-9.131s7.943,4.088,7.943,9.131
		C416.21,467.454,412.657,471.539,408.272,471.544z M408.272,455.108c-3.509,0-6.354,3.271-6.354,7.305s2.845,7.305,6.354,7.305
		s6.354-3.271,6.354-7.305C414.623,458.38,411.78,455.112,408.272,455.108z"/>
	<rect x="347.905" y="523.479" class="st4" width="103.259" height="1.826"/>
	<rect x="347.905" y="560.234" class="st4" width="100.695" height="1.826"/>
	<rect x="562.367" y="523.479" class="st4" width="103.259" height="1.826"/>
	<rect x="564.749" y="560.234" class="st4" width="100.695" height="1.826"/>
	<path class="st5" d="M264.203,352.226c-6.441-3.402-10.676-13.128-10.434-22.72s4.632-18.563,10.688-23.137
		c5.997-4.418,13.525-5.072,20.032-1.74c6.499,3.18,15.226,4.047,19.132,11.952c3.002,6.075,1.921,19.628-0.205,26.383
		c-1.837,5.839-6.329,9.128-10.71,10.969c-9.81,4.086-20.68,3.079-29.795-2.759"/>
	<polygon class="st6" points="224.929,641.122 215.668,637.658 222.881,594.948 236.549,600.059 	"/>
	<path class="st7" d="M209.915,632.143l17.859,6.679l0,0l-3.658,12.927l0,0l-29.104-10.885l0,0l0,0
		C197.032,633.725,203.705,629.82,209.915,632.143z"/>
	<polygon class="st6" points="307.829,641.354 298.091,641.353 293.459,598.172 307.831,598.173 	"/>
	<path class="st7" d="M291.135,638.154h18.78l0,0v13.594l0,0h-30.605l0,0l0,0C279.311,644.24,284.605,638.154,291.135,638.154z"/>
	<path class="st8" d="M307.339,623.692c-0.059,0-0.117-0.002-0.176-0.005l-10.791-0.591c-1.886-0.106-3.375-1.878-3.404-4.048
		l-1.462-122.718c-0.009-0.756-0.55-1.361-1.208-1.35c-0.436,0.007-0.834,0.287-1.037,0.731L232.104,620.3
		c-0.728,1.603-2.286,2.465-3.83,2.12l-10.74-2.352c-1.939-0.424-3.212-2.575-2.843-4.804c0.034-0.204,0.081-0.404,0.141-0.6
		l41.645-135.649l3.205-40.127c0.147-1.929,1.453-3.474,3.126-3.698c12.135-1.714,29.09-13.144,35.817-17.979
		c0.835-0.605,1.852-0.781,2.804-0.485c0.963,0.298,1.777,1.04,2.249,2.05c16.204,34.619,22.401,74.27,17.695,113.209
		l-10.498,88.155C310.641,622.177,309.127,623.698,307.339,623.692z"/>
	<ellipse class="st6" cx="278.293" cy="339.223" rx="19.509" ry="22.428"/>
	<path class="st9" d="M258.854,448.522l-5.874-48.255c-2.98-15.277,5.377-30.438,18.666-33.864
		c13.273-3.422,26.45,6.16,29.448,21.414c1.673,8.92,5.072,19.779,3.83,31.485l0,0C296.224,447.061,280.431,455.619,258.854,448.522
		z"/>
	<path class="st9" d="M284.669,373.644h-14.297c-1.973-0.002-3.572-1.125-3.574-2.51v-3.347c0.002-1.386,1.601-2.509,3.574-2.51
		h14.297c1.973,0.002,3.572,1.125,3.574,2.51v3.347C288.241,372.52,286.642,373.643,284.669,373.644z"/>
	<path class="st6" d="M357.128,464.851c1.465-5.149-0.978-10.689-5.457-12.374c-0.478-0.18-0.968-0.31-1.466-0.391l-44.504-73.247
		l-13.196,14.998l47.896,67.284c-0.348,5.432,3.201,10.16,7.926,10.56C352.281,472.016,355.919,469.192,357.128,464.851z"/>
	<path class="st9" d="M319.623,401.247l-16.072,12.334c-1.757,1.349-4.133,0.804-5.306-1.216c-0.104-0.179-0.197-0.367-0.277-0.562
		l-8.233-20.023c-3.23-5.633-1.876-13.209,3.023-16.922c4.88-3.698,11.441-2.171,14.686,3.417l12.891,16.363
		c1.418,1.801,1.297,4.583-0.269,6.213C319.927,400.995,319.779,401.128,319.623,401.247L319.623,401.247z"/>
	<path class="st6" d="M199.908,366.433c0.098,0.493,0.161,0.993,0.19,1.498l34.121,22.63l8.294-5.489l8.842,13.307l-13.861,11.357
		c-2.3,1.885-5.406,1.798-7.624-0.214l-35.185-31.911c-4.318,1.838-9.115-0.697-10.714-5.662
		c-1.599-4.965,0.606-10.479,4.925-12.317c4.318-1.838,9.115,0.697,10.714,5.662C199.729,365.666,199.829,366.046,199.908,366.433
		L199.908,366.433z"/>
	<path class="st9" d="M244.137,407.003l-8.574-19.909c-0.938-2.177-0.162-4.816,1.731-5.893c0.168-0.096,0.342-0.177,0.52-0.243
		l18.331-6.812c5.274-2.958,11.636-0.441,14.209,5.622c2.563,6.039,0.402,13.323-4.836,16.304l-15.772,12.593
		c-1.736,1.385-4.12,0.89-5.325-1.106C244.315,407.383,244.22,407.197,244.137,407.003L244.137,407.003z"/>
	<path class="st5" d="M297.622,349.434c-3.41,0.184-2.823-8.134-3.89-11.861c-1.067-3.728-2.538-8.174-5.895-8.889
		c-2.751-0.586-5.236,1.727-7.632,3.387c-4.271,2.959-9.798,4.05-14.283,1.544c-4.484-2.506-7.211-9.203-5.03-14.357
		c1.342-2.864,3.657-4.96,6.393-5.791c2.714-0.802,5.542-0.958,8.31-0.459c6.176,0.87,12.11,3.289,17.384,7.084
		c3.639,2.624,7.102,6.197,8.186,10.976c1.084,4.779,1.525,17.775-2.711,18.597L297.622,349.434z"/>
	<path class="st2" d="M213.953,366.593H53.046c-3.063-0.004-5.545-2.858-5.549-6.379V256.029c0.004-3.521,2.486-6.375,5.549-6.379
		h160.907c3.063,0.004,5.545,2.857,5.549,6.379v104.185C219.498,363.735,217.016,366.589,213.953,366.593z M53.046,251.068
		c-2.382,0.003-4.313,2.222-4.316,4.961v104.185c0.003,2.739,1.933,4.958,4.316,4.961h160.907c2.382-0.003,4.313-2.223,4.316-4.961
		V256.029c-0.003-2.739-1.933-4.958-4.316-4.961L53.046,251.068z"/>
	<ellipse class="st10" cx="96.046" cy="296.335" rx="23.009" ry="26.451"/>
	<path class="st1" d="M194.753,343.043l-27.009-53.78c-0.531-1.058-1.707-1.42-2.627-0.809c-0.292,0.194-0.535,0.473-0.704,0.809
		l-16.483,32.82l-24.572-48.928c-0.681-1.356-2.189-1.82-3.369-1.038c-0.375,0.249-0.686,0.607-0.903,1.038l-34.629,68.952
		c-0.681,1.356-0.277,3.09,0.903,3.873c0.375,0.249,0.8,0.38,1.233,0.38h106.493c1.062,0,1.923-0.99,1.923-2.211
		C195.011,343.76,194.922,343.379,194.753,343.043z"/>
	<rect x="59.211" y="262.408" class="st4" width="9.864" height="11.34"/>
	<path class="st3" d="M276.587,213.185H150.86c-2.393-0.003-4.333-2.233-4.335-4.984v-81.407c0.003-2.751,1.942-4.981,4.335-4.984
		h125.727c2.393,0.003,4.333,2.233,4.335,4.984v81.407C280.92,210.952,278.98,213.182,276.587,213.185z M150.86,122.917
		c-1.861,0.002-3.37,1.737-3.372,3.877v81.407c0.002,2.14,1.511,3.874,3.372,3.877h125.727c1.861-0.002,3.37-1.737,3.372-3.877
		v-81.407c-0.002-2.14-1.511-3.874-3.372-3.877L150.86,122.917z"/>
	<ellipse class="st10" cx="182.263" cy="158.287" rx="17.978" ry="20.668"/>
	<path class="st11" d="M261.585,194.784l-21.104-42.022c-0.415-0.826-1.334-1.11-2.053-0.632c-0.229,0.152-0.418,0.37-0.55,0.632
		L225,178.406l-19.2-38.231c-0.532-1.059-1.711-1.422-2.632-0.811c-0.293,0.194-0.536,0.474-0.705,0.811l-27.057,53.877
		c-0.532,1.059-0.216,2.414,0.705,3.026c0.293,0.194,0.625,0.297,0.963,0.297h83.21c0.83,0,1.503-0.774,1.503-1.728
		C261.786,195.344,261.717,195.046,261.585,194.784z"/>
	<rect x="155.677" y="131.778" class="st3" width="7.707" height="8.861"/>
	<path class="st5" d="M292.78,309.494l-9.47-3.233c-2.892-0.987-4.436-4.132-3.448-7.023h0c0.987-2.892,4.132-4.436,7.023-3.448
		l9.47,3.233c2.892,0.987,4.436,4.132,3.448,7.023v0C298.816,308.937,295.672,310.481,292.78,309.494z"/>
</g>
</svg>
