<?xml version="1.0" encoding="utf-8"?>
<!-- Generator: Adobe Illustrator 27.6.1, SVG Export Plug-In . SVG Version: 6.00 Build 0)  -->
<svg version="1.1" id="Ebene_1" xmlns="http://www.w3.org/2000/svg" xmlns:xlink="http://www.w3.org/1999/xlink" x="0px" y="0px"
	 viewBox="0 0 780 780" style="enable-background:new 0 0 780 780;" xml:space="preserve">
<style type="text/css">
	.st0{fill:#F2F2F2;}
	.st1{fill:#FFFFFF;}
	.st2{fill:#C8A5CB;}
	.st3{fill:#403E56;}
	.st4{fill:#579574;}
	.st5{fill:#F6B6B8;}
	.st6{fill:#F0F0DF;}
	.st7{fill:#D8CB96;}
	.st8{fill:#CDCCCC;}
	.st9{fill:#FCE19E;}
</style>
<g>
	<path class="st0" d="M775.112,80.77c-9.73,6.28-19.5,12.307-29.31,18.08c-0.71,0.42-1.42,0.84-2.13,1.25
		c-12.2,7.14-24.45,13.873-36.75,20.2c-0.61,0.32-1.22,0.63-1.83,0.94c-20.52,10.5-41.114,19.863-61.78,28.09
		c-0.7,0.28-1.4,0.56-2.1,0.83c-12.79,5.04-25.587,9.633-38.39,13.78c-0.69,0.22-1.39,0.45-2.08,0.66
		c-0.79,0.26-1.58,0.51-2.37,0.76c-21.598,6.819-43.554,12.444-65.77,16.85c-0.82,0.16-1.63,0.32-2.44,0.48
		c-15.11,2.92-30.267,5.253-45.47,7c-0.69,0.09-1.37,0.17-2.06,0.24c-21.603,2.416-43.323,3.628-65.061,3.63
		c-51.26,0-103.621-6.78-156.011-20.18c-0.75-0.19-1.5-0.38-2.25-0.59c-8.84-2.28-17.684-4.757-26.53-7.43
		c-5.55-1.68-11.117-3.437-16.7-5.27c-0.67-0.22-1.34-0.44-2.01-0.67c-23.74-7.87-47.644-17.137-71.711-27.8
		c-0.73-0.32-1.46-0.65-2.2-0.98c-14.49-6.46-29.013-13.42-43.57-20.88c-0.62-0.31-1.24-0.63-1.86-0.96
		c-16.88-8.68-33.77-18.017-50.67-28.01l1.02-1.72c17.49,10.34,34.947,19.963,52.371,28.87l0.05,0.02
		c14.06,7.2,28.097,13.927,42.11,20.18c24.297,10.885,49.129,20.534,74.4,28.91c1.67,0.55,3.33,1.1,5,1.62
		c14.1,4.56,28.177,8.63,42.23,12.21c0.76,0.2,1.51,0.39,2.27,0.58c73.591,18.54,146.315,23.897,218.172,16.07
		c0.69-0.06,1.37-0.14,2.06-0.23c14.31-1.59,28.577-3.717,42.801-6.38c2.45-0.46,4.9-0.93,7.35-1.43
		c22.026-4.4,43.795-9.998,65.211-16.77c0.69-0.22,1.39-0.44,2.08-0.67c13.47-4.29,26.897-9.067,40.281-14.33
		c0.7-0.28,1.4-0.55,2.1-0.83c20.15-7.99,40.2-17.07,60.15-27.24c0.61-0.3,1.22-0.61,1.83-0.94
		c12.84-6.57,25.633-13.597,38.38-21.08c0.72-0.41,1.43-0.83,2.14-1.26c9.35-5.52,18.673-11.28,27.97-17.28L775.112,80.77z"/>
	<path class="st0" d="M139.607,128.14l-42.11-20.18l-0.05-0.02l-2.34-1.12l-0.38,1.98l-11.58,60.21l59.21-37.39l1.95-1.23
		L139.607,128.14z M85.987,164.85l10.6-55.09v-0.02l43.59,20.89l-0.02,0.01L85.987,164.85z"/>
	<path class="st0" d="M261.238,170.88l-1.93,1.91l-41.881,41.29l-1.35-53.99l-0.05-2.12l2.98,0.7c-1.67-0.52-3.33-1.07-5-1.62
		l0.06,2.37l1.48,59.32l46.011-45.36l1.95-1.92C262.748,171.27,261.998,171.08,261.238,170.88z"/>
	<path class="st0" d="M526.54,180.92l4.72-0.57l-1.1,2.34l-26.28,55.62l-19.19-48.62l-0.95-2.39c-0.69,0.09-1.37,0.17-2.06,0.23
		l0.95,2.4l21.09,53.41l28.881-61.13l1.29-2.72C531.44,179.99,528.99,180.46,526.54,180.92z"/>
	<path class="st0" d="M641.461,147.72l-0.25,2.44l-5.25,51.83l-33.14-38.05l-1.64-1.89c-0.69,0.23-1.39,0.45-2.08,0.67l1.64,1.88
		l36.741,42.19l5.83-57.46l0.25-2.44C642.861,147.17,642.161,147.44,641.461,147.72z"/>
	<path class="st0" d="M743.922,97.63l-0.25,2.47l-5.8,55.9l-30.95-35.7l-1.38-1.59c-0.61,0.33-1.22,0.64-1.83,0.94l1.38,1.59
		l34.29,39.56l6.42-61.95l0.26-2.48C745.352,96.8,744.642,97.22,743.922,97.63z"/>
	<path class="st0" d="M483.412,451.18c-12.273-10.37-19.727-26.752-17.772-42.7c1.955-15.948,14.064-30.609,29.77-33.996
		s33.611,5.988,38.382,21.331c2.625-29.58,5.651-60.4,21.378-85.59c14.24-22.809,38.905-39.13,65.636-42.05
		c26.731-2.92,54.875,8.108,71.546,29.206c16.671,21.098,20.753,51.77,9.077,75.993c-8.601,17.844-24.448,31.123-41.051,41.927
		c-53.651,34.616-117.998,48.693-181.203,39.641L483.412,451.18z"/>
	<path class="st1" d="M665.917,276.894c-22.056,17.965-42.29,38.057-60.41,59.987c-28.357,34.202-51.304,72.548-68.041,113.703
		c-1.225,3.002,3.65,4.309,4.862,1.34c27.385-66.886,71.103-125.838,127.155-171.465
		C671.999,278.409,668.413,274.861,665.917,276.894L665.917,276.894z"/>
	<path class="st0" d="M228.993,616.94c-2.5,0.37-5.007,0.7-7.52,0.99c-60.849,6.924-122.218-7.433-173.682-40.63
		c-16.6-10.8-32.45-24.08-41.05-41.93c-11.68-24.22-7.59-54.89,9.08-75.99c6.069-7.617,13.549-13.993,22.03-18.78
		c1.26-0.73,2.54-1.41,3.84-2.06c14.111-7.098,29.96-10.002,45.671-8.37c26.73,2.92,51.4,19.25,65.64,42.05
		c15.72,25.19,18.75,56.01,21.37,85.59c0.21-0.68,0.45-1.35,0.71-2c0.553-1.393,1.223-2.738,2-4.02v49.14
		c0.01,8.28,6.72,14.99,15,15h35.77L228.993,616.94z"/>
	<path class="st1" d="M42.251,438.894c22.056,17.965,42.29,38.057,60.41,59.987c18.122,21.907,34.077,45.52,47.641,70.507
		c7.581,14.017,14.392,28.437,20.401,43.196c1.225,3.002-3.65,4.309-4.862,1.34c-10.644-26.02-23.812-50.935-39.316-74.387
		c-15.429-23.367-33.088-45.182-52.729-65.138c-11.109-11.282-22.83-21.945-35.11-31.94
		C36.169,440.409,39.755,436.861,42.251,438.894L42.251,438.894z"/>
	<path class="st2" d="M521.585,503.93H262.083v-28.5c0-5.247-4.253-9.5-9.5-9.5c-5.247,0-9.5,4.253-9.5,9.5v38
		c0.015,5.24,4.26,9.485,9.5,9.5h269.002c5.247,0,9.5-4.253,9.5-9.5S526.832,503.93,521.585,503.93z"/>
	<path class="st3" d="M778.734,700.869h-738.3c-0.658-0.003-1.188-0.539-1.184-1.197c0.003-0.653,0.532-1.181,1.184-1.184h738.3
		c0.658,0.003,1.188,0.539,1.184,1.197C779.915,700.337,779.387,700.865,778.734,700.869z"/>
	<path class="st3" d="M691.086,615.93H128.081c-9.383,0.013-16.987,7.617-17,17v51c0.013,9.383,7.617,16.987,17,17h563.005
		c9.383-0.013,16.987-7.617,17-17v-51C708.072,623.547,700.469,615.943,691.086,615.93z M706.086,683.93
		c-0.01,8.28-6.72,14.99-15,15H128.081c-8.28-0.01-14.99-6.72-15-15v-51c0.01-8.28,6.72-14.99,15-15h563.005
		c8.28,0.01,14.99,6.72,15,15V683.93z"/>
	<path class="st2" d="M663.586,669.93H143.082v-28.5c0-5.247-4.253-9.5-9.5-9.5s-9.5,4.253-9.5,9.5v38
		c0.015,5.24,4.26,9.485,9.5,9.5h530.004c5.247,0,9.5-4.253,9.5-9.5S668.833,669.93,663.586,669.93z"/>
	<path class="st2" d="M570.586,581.93H208.083v-28.5c0-5.247-4.253-9.5-9.5-9.5s-9.5,4.253-9.5,9.5v38
		c0.015,5.24,4.26,9.485,9.5,9.5h372.003c5.247,0,9.5-4.253,9.5-9.5S575.832,581.93,570.586,581.93z"/>
	<path class="st4" d="M606.005,648c-80.001-20-250.002,8-253.002,8c-2.93,0-188.912,27.65-182.781-38.07c0.06-0.66,0.14-1.32,0.24-2
		h499.234c0.12,0.59,0.24,1.26,0.35,2C671.975,630.96,671.025,664.26,606.005,648z"/>
	<path class="st3" d="M628.085,532.93H192.082c-9.383,0.013-16.987,7.617-17,17v51c0.022,9.38,7.62,16.978,17,17h436.003
		c9.374-0.035,16.965-7.626,17-17v-51C645.072,540.547,637.468,532.943,628.085,532.93z M643.085,600.93
		c-0.017,8.277-6.723,14.983-15,15H192.082c-8.278-0.016-14.984-6.723-15-15v-51c0.01-8.28,6.72-14.99,15-15h436.003
		c8.28,0.01,14.99,6.72,15,15V600.93z"/>
	<path class="st4" d="M572.616,561.031c-69.925-17.481-218.516,6.992-221.138,6.992c-2.561,0-165.119,24.168-159.761-33.275
		c0.052-0.577,0.122-1.154,0.21-1.748h436.359c0.105,0.516,0.21,1.101,0.306,1.748C630.278,546.137,629.448,575.243,572.616,561.031
		z"/>
	<path class="st3" d="M574.086,533.93H245.083c-9.385-0.01-16.99-7.616-17-17v-51c0.011-9.384,7.616-16.99,17-17h329.003
		c9.385,0.011,16.99,7.616,17,17v51C591.075,526.314,583.47,533.919,574.086,533.93z M245.083,450.93c-8.28,0.009-14.991,6.72-15,15
		v51c0.009,8.28,6.72,14.991,15,15h329.003c8.28-0.009,14.991-6.72,15-15v-51c-0.009-8.28-6.72-14.991-15-15H245.083z"/>
	<path class="st4" d="M534.765,470.533c-53.619-13.405-167.56,5.362-169.571,5.362c-1.964,0-126.615,18.532-122.507-25.516
		c0.04-0.442,0.094-0.885,0.161-1.34h334.605c0.08,0.395,0.161,0.844,0.235,1.34C578.981,459.112,578.344,481.431,534.765,470.533z"
		/>
	<ellipse class="st3" cx="410.003" cy="451" rx="34" ry="3"/>
	<path class="st5" d="M408.084,339.647c-0.027,0.553-0.01,1.107,0.05,1.657l-37.988,31.881l-11.328-4.102l-8.425,16.287
		l24.768,11.789l41.53-46.603c5.704,1.035,11.166-2.75,12.201-8.454s-2.75-11.166-8.454-12.201
		c-5.704-1.035-11.166,2.75-12.201,8.454C408.159,338.783,408.108,339.214,408.084,339.647L408.084,339.647z"/>
	<path class="st6" d="M357.136,393.183l-36.684-13.241c-7.016-2.523-10.658-10.256-8.135-17.272
		c2.523-7.016,10.256-10.658,17.272-8.135c0.01,0.004,0.02,0.007,0.03,0.011l36.684,13.241c2.337,0.843,3.548,3.422,2.705,5.759
		c0,0,0,0.001,0,0.001l-6.111,16.931C362.05,392.813,359.473,394.023,357.136,393.183L357.136,393.183z"/>
	<path class="st3" d="M407.084,314.93c-0.552,0-1-0.448-1-1v-37c0-0.552,0.448-1,1-1s1,0.448,1,1v37
		C408.084,314.482,407.637,314.93,407.084,314.93z"/>
	<path class="st7" d="M424.085,268.93c9.306,8.646-2.297,27-15,27c-12.703,0-23-10.297-23-23s24.859-68.737,20-57
		C404.534,219.676,413.427,259.029,424.085,268.93z"/>
	<path class="st8" d="M416.084,414.43h-17c-2.484-0.003-4.497-2.016-4.5-4.5v-102c0.003-2.484,2.016-4.497,4.5-4.5h17
		c2.484,0.003,4.497,2.016,4.5,4.5v102C420.582,412.414,418.569,414.427,416.084,414.43z"/>
	<polygon class="st5" points="330.269,522.175 342.529,522.175 348.361,474.887 330.267,474.888 	"/>
	<path class="st6" d="M366.173,533.558l-38.531,0.002l0,0l-0.001-14.887l0,0l23.644-0.001
		C359.508,518.671,366.173,525.336,366.173,533.558L366.173,533.558L366.173,533.558z"/>
	<polygon class="st5" points="299.971,506.338 310,513.39 341.971,478.062 327.169,467.655 	"/>
	<path class="st6" d="M322.794,536.301l-31.52-22.161l0,0l8.562-12.178l0,0l19.342,13.599
		C325.904,520.29,327.523,529.575,322.794,536.301L322.794,536.301L322.794,536.301z"/>
	<path class="st5" d="M357.096,436.992c0,0,30.595-3.61,25.104,16.244c-5.491,19.853-66.682,37-66.682,37L357.096,436.992z"/>
	<circle class="st5" cx="336.037" cy="311.129" r="24.561"/>
	<path class="st6" d="M257.71,486.169c-13.976-16.273-18.866-41.249,3.421-62.021c5.504-5.004,11.737-9.143,18.485-12.275
		l17.963-50.234c3.82-10.741,13.898-17.99,25.297-18.196c11.076-0.478,21.253,6.067,25.413,16.343
		c2.194,5.102,2.445,10.83,0.706,16.104c-5.347,16.652-12.369,32.719-20.959,47.954l0.929,7.431l45.404,4.035l-0.424,0.688
		c-0.221,0.359-22.442,34.216-50.869,56.688c-9.72,7.684-19.771,10.868-29.258,10.867
		C279.432,503.551,266.349,496.228,257.71,486.169z"/>
	<path class="st5" d="M409.315,373.947c-0.259,0.489-0.48,0.997-0.659,1.521l-47.937,12.712l-8.511-8.528l-14.549,11.162
		l17.408,21.198l57.4-24.532c4.723,3.361,11.276,2.257,14.637-2.466c3.361-4.723,2.257-11.276-2.466-14.637
		c-4.723-3.361-11.276-2.257-14.637,2.466C409.75,373.196,409.521,373.565,409.315,373.947L409.315,373.947z"/>
	<path class="st6" d="M340.442,400.751l-27.577-27.577c-5.274-5.27-5.278-13.818-0.008-19.092c5.27-5.274,13.818-5.278,19.092-0.008
		c0.003,0.003,0.005,0.005,0.008,0.008l27.577,27.577c1.757,1.757,1.758,4.605,0.001,6.363c0,0,0,0-0.001,0.001l-12.728,12.729
		C345.048,402.505,342.201,402.505,340.442,400.751z"/>
	<path class="st9" d="M253.425,318.834c4.345-5.178,6.209-11.95,7.709-18.542c2.372-10.429,4.208-21.213,9.479-30.519
		c5.27-9.306,14.956-17.018,25.635-16.431c10.618,0.584,19.203,9.126,23.759,18.846c2.232-0.867,4.726-0.746,6.864,0.331
		c3.284,1.798,4.512,6.91,1.778,9.469c5.815-2.769,12.532-2.936,18.478-0.461c7.707,3.281,12.931,10.599,13.529,18.954
		c0.231,3.362-0.941,6.67-3.238,9.136c-4.712,4.851-11.378,3.178-17.304,1.942c-5.598-1.167-12.416-1.482-15.569,3.851
		c-1.243,2.222-1.591,4.835-0.973,7.305c1.208,5.324,5.15,9.033,8.974,12.582l0.625,1.162c-13.503,2.633-28.247-6.588-31.789-19.881
		c-3.542-13.293,4.659-28.628,17.682-33.063l0,0c-2.688,0.084-4.935-2.028-5.019-4.716c-0.028-0.904,0.196-1.797,0.647-2.581
		c-3.749-1.874-7.687-3.219-11.815-2.948c-6.727,0.441-12.548,5.229-16.048,10.99c-3.501,5.761-5.086,12.447-6.692,18.994
		c-1.605,6.547-3.343,13.219-7.086,18.826c-9.187,13.761-27.791,17.468-41.551,8.281c-2.421-1.616-4.593-3.576-6.448-5.819
		C234.718,329.232,246.324,326.896,253.425,318.834z"/>
</g>
</svg>
