<?xml version="1.0" encoding="utf-8"?>
<!-- Generator: Adobe Illustrator 27.6.1, SVG Export Plug-In . SVG Version: 6.00 Build 0)  -->
<svg version="1.1" id="Ebene_1" xmlns="http://www.w3.org/2000/svg" xmlns:xlink="http://www.w3.org/1999/xlink" x="0px" y="0px"
	 viewBox="0 0 780 780" style="enable-background:new 0 0 780 780;" xml:space="preserve">
<style type="text/css">
	.st0{fill:#579573;}
	.st1{opacity:0.2;}
	.st2{fill:#FCE19E;}
	.st3{fill:#FFB8B8;}
	.st4{fill:#F0F0DF;}
	.st5{fill:#E6E6E6;}
	.st6{fill:#CCCCCC;}
	.st7{fill:#3F3D56;}
	.st8{fill:#1D1D1B;}
	.st9{fill:#D8CB96;}
	.st10{fill:#C7A4CA;}
</style>
<g>
	<path class="st0" d="M660.629,517.145l7.319-55.516c27.038-11.568,56.491-16.36,85.802-13.961
		c-43.186,29.465-43.665,93.451-74.853,135.409c-19.907,26.358-50.721,42.231-83.739,43.137l-35.538,17.73
		c-4.834-53.052,13.805-105.561,51.006-143.692c10.417-10.468,22.111-19.582,34.805-27.128
		C651.663,495.134,660.629,517.145,660.629,517.145z"/>
	<g class="st1">
		<path d="M559.642,618.155c4.041,6.57,8.288,12.973,12.741,19.209c3.461-7.012,7.653-13.543,12.488-19.459
			c16.979-20.804,39.738-34.413,61.825-48.053c22.086-13.64,44.509-28.281,60.113-50.4c7.002-9.957,12.016-21.465,14.705-33.756
			c-49.65,7.673-95.273,34.654-128.813,76.178C579.273,578.731,568.135,597.693,559.642,618.155z"/>
	</g>
	<path class="st2" d="M597.682,173.4c3.825-8.838,11.54-15.397,20.878-17.751c10.23-2.661,25.208,1.392,32.899,7.212
		c14.067,10.645,17.5,47.217,7.835,58.773c-1.922-0.077-8.556-0.134-10.501-0.19l-2.752-6.966v6.897
		c-15.186-0.356-30.997-0.133-46.815,0.098C597.808,213.292,594.43,181.271,597.682,173.4z"/>
	<polygon class="st3" points="600.261,614.389 586.41,614.388 579.82,560.961 600.263,560.962 	"/>
	<polygon class="st3" points="721.515,605.775 708.111,609.269 688.258,559.232 708.041,554.076 	"/>
	<circle class="st3" cx="618.831" cy="190.876" r="21.938"/>
	<path class="st2" d="M603.757,162.309c12.994-7.922,29.95-3.81,37.871,9.184c2.726,4.472,4.121,9.628,4.023,14.864
		c-11.959,3.056-24.702,4.335-38.207,0.736l-3.087-7.555l-1.82,7.561c-4.132,2.906-8.119,2.901-11.963-0.016
		C590.242,177.066,595.264,167.629,603.757,162.309z"/>
	<path class="st4" d="M606.457,640.689h-9.829l-1.754-9.279l-4.493,9.279h-26.068c-3.236,0-5.86-2.623-5.86-5.859
		c0-1.926,0.946-3.728,2.53-4.823L581.8,615.63v-9.381l21.896,1.307L606.457,640.689z"/>
	<path class="st4" d="M735.359,629.346l-9.511,2.479l-4.038-8.537l-2.007,10.113l-25.225,6.575c-3.132,0.817-6.332-1.06-7.149-4.192
		c-0.486-1.863-0.025-3.846,1.232-5.305l16.518-19.163l-2.366-9.078l21.518-4.258L735.359,629.346z"/>
	<path class="st4" d="M719.815,572.176L719.815,572.176c-8.477-31.513-17.903-62.332-40.601-83.448l-6.249-91.699
		c8.788-16.32-14.029-59.396-14.029-59.396l-7.971-11.604l-55.25,9.588v0c-12.931,35.268-19.235,43.964-18.492,110.188
		s2.547,135.01,2.547,135.01h-0.799c-2.761,0-5,2.239-5,5s2.239,5,5,5h25c2.761,0,5-2.239,5-5s-2.239-5-5-5h-0.645
		c14.674-41.249,17.295-104.689,17.947-171.757l20.868,84.758l50.43,78.039c-2.746,0.214-4.799,2.614-4.585,5.36
		c0.203,2.601,2.376,4.607,4.985,4.6h25c2.759,0.003,4.997-2.231,5-4.99C722.973,574.775,721.722,572.931,719.815,572.176z"/>
	<path class="st5" d="M664.651,346.182L664.651,346.182c-0.426-1.674-1.882-2.883-3.605-2.995
		c-6.803-6.905-11.9-68.186-6.549-72.421l-0.008-0.076l-1.594-34.058c-0.12-2.561-2.144-4.623-4.703-4.79l-8.421-0.55
		c-0.24-0.008-0.431-0.205-0.431-0.445c0-3.911-3.17-7.081-7.081-7.081l0,0h-24.931c-3.341,0.001-6.159,2.489-6.576,5.804
		c-0.023,0.229-0.218,0.401-0.448,0.396l-0.003,0c-5.854-0.121-10.918,4.055-11.915,9.824c-3.408,19.831-1.799,61.218,1.579,86.24
		c1.176,8.711-7.799,25.434-8.244,32.722c-0.089,1.422,0.391,2.822,1.336,3.89c-2.067,0.596-3.29,2.722-2.766,4.808h0
		c0.54,2.142,2.714,3.441,4.856,2.901l76.603-19.311C663.893,350.498,665.191,348.324,664.651,346.182L664.651,346.182z"/>
	<path class="st3" d="M499.884,262.183c5.021-1.961,10.681,0.519,12.642,5.54c0.209,0.535,0.371,1.088,0.482,1.652l76.975,16.554
		l-11.901,13.536l-73.42-18.389c-5.374,0.7-10.299-3.088-10.999-8.463C493.078,268.118,495.649,263.806,499.884,262.183
		L499.884,262.183z"/>
	<path class="st5" d="M601.204,304.597c-11.885,6.221-83.676-18.116-86.812-19.184l-0.797-0.272l14.764-13.572l56.8,8.318
		l1.721-33.258c0.398-7.519,5.48-13.977,12.695-16.132c9.418-2.801,19.323,2.563,22.124,11.981c1.039,3.495,0.98,7.225-0.171,10.685
		l-14.055,42.262c-1.083,3.244-2.932,6.179-5.392,8.556C601.82,304.227,601.524,304.434,601.204,304.597z"/>
	<path class="st5" d="M535.566,640.029H91.231l-0.11-0.35l-0.11-0.35c-1.453-4.619-2.781-9.301-3.977-14.013
		s-2.259-9.455-3.181-14.195c-1.253-6.436-2.257-12.939-3.007-19.463s-1.245-13.07-1.482-19.592
		c-1.685-47.458,35.421-87.297,82.879-88.982c1.093-0.039,2.187-0.057,3.28-0.054h304.17c47.536-0.083,86.139,38.386,86.222,85.923
		c0.005,3.139-0.161,6.275-0.498,9.396v0.001c-0.867,7.775-2.322,15.473-4.352,23.029c-2.1,7.815-4.751,15.472-7.932,22.914
		c-1.082,2.535-2.234,5.076-3.454,7.622c-1.217,2.541-2.495,5.069-3.833,7.586l-0.141,0.265L535.566,640.029z"/>
	<path class="st0" d="M472.965,514.529h-319c-14.636,0-26.5-11.864-26.5-26.5s11.864-26.5,26.5-26.5h319
		c14.636,0,26.5,11.864,26.5,26.5S487.601,514.529,472.965,514.529z"/>
	<path class="st5" d="M476.989,496.202H152.283l-0.22-0.7c-5.024-15.936-7.887-32.474-8.513-49.171
		c-1.183-34.846,26.105-64.053,60.951-65.236c0.736-0.025,1.472-0.037,2.209-0.036h222.035c34.868-0.036,63.164,28.201,63.2,63.069
		c0.002,2.274-0.118,4.547-0.361,6.808c-1.636,14.928-6.451,29.979-14.313,44.736L476.989,496.202z"/>
	<path class="st0" d="M432.965,414.529h-235c-14.636,0-26.5-11.864-26.5-26.5s11.864-26.5,26.5-26.5h235
		c14.636,0,26.5,11.864,26.5,26.5S447.601,414.529,432.965,414.529z"/>
	<path class="st5" d="M448.615,321.319c-9.962-11.103-24.173-17.45-39.09-17.46h-183.59c-28.922-0.029-52.391,23.394-52.42,52.317
		c-0.001,0.608,0.009,1.216,0.03,1.823c0.516,13.824,2.884,27.516,7.04,40.71l0.22,0.7h268.71l0.28-0.53
		c6.277-11.485,10.299-24.064,11.85-37.06C463.249,347.082,458.512,332.357,448.615,321.319z"/>
	<path class="st0" d="M406.175,303.859h-173.42c-4.511,13.924,3.12,28.869,17.045,33.38c2.638,0.854,5.393,1.29,8.165,1.29h123
		c14.637-0.001,26.501-11.868,26.5-26.505C407.465,309.252,407.03,306.497,406.175,303.859L406.175,303.859z"/>
	<path class="st6" d="M542.215,623.899c-2.16,5.06-4.577,10.103-7.25,15.13h-443c-2.903-9.225-5.283-18.607-7.13-28.1
		c1.671-1.298,3.826-1.802,5.9-1.38c2.111,0.669,3.936,2.028,5.18,3.86c3.73,4.84,5.29,10.97,6.76,16.91
		c1.57-3.5,3.2-7.09,5.94-9.79c2.205-2.285,5.265-3.544,8.44-3.47c1.11-1.985,2.693-3.665,4.61-4.89c2.69-1.6,6.36-1.82,8.81,0.11
		c1.644,1.483,2.74,3.477,3.11,5.66c1.37,5.96,0.23,12.18-0.91,18.2c2.89-2.54,5.87-5.12,9.48-6.43
		c1.634-0.598,3.373-0.853,5.11-0.75c0.34-3.326,1.218-6.575,2.6-9.62c1.169-2.918,3.19-5.417,5.8-7.17
		c2.69-1.6,6.36-1.82,8.81,0.11c1.644,1.483,2.74,3.477,3.11,5.66c1.37,5.96,0.23,12.18-0.91,18.2c2.89-2.54,5.87-5.12,9.48-6.43
		c1.634-0.598,3.373-0.853,5.11-0.75c0.34-3.326,1.218-6.575,2.6-9.62c1.169-2.918,3.19-5.417,5.8-7.17
		c2.69-1.6,6.36-1.82,8.81,0.11c1.644,1.483,2.74,3.477,3.11,5.66c1.37,5.96,0.23,12.18-0.91,18.2c2.89-2.54,5.87-5.12,9.48-6.43
		c1.634-0.598,3.373-0.853,5.11-0.75c0.34-3.326,1.218-6.575,2.6-9.62c1.169-2.918,3.19-5.417,5.8-7.17
		c2.69-1.6,6.36-1.82,8.81,0.11c1.644,1.483,2.74,3.477,3.11,5.66c1.37,5.96,0.23,12.18-0.91,18.2c2.89-2.54,5.87-5.12,9.48-6.43
		c1.634-0.598,3.373-0.853,5.11-0.75c0.34-3.326,1.218-6.575,2.6-9.62c1.169-2.918,3.19-5.417,5.8-7.17
		c2.69-1.6,6.36-1.82,8.81,0.11c1.644,1.483,2.74,3.477,3.11,5.66c1.37,5.96,0.23,12.18-0.91,18.2c2.89-2.54,5.87-5.12,9.48-6.43
		c1.634-0.598,3.373-0.853,5.11-0.75c0.34-3.326,1.218-6.575,2.6-9.62c1.169-2.918,3.19-5.417,5.8-7.17
		c2.69-1.6,6.36-1.82,8.81,0.11c1.644,1.483,2.74,3.477,3.11,5.66c1.37,5.96,0.23,12.18-0.91,18.2c2.89-2.54,5.87-5.12,9.48-6.43
		c1.634-0.598,3.373-0.853,5.11-0.75c0.34-3.326,1.218-6.575,2.6-9.62c1.169-2.918,3.19-5.417,5.8-7.17
		c2.69-1.6,6.36-1.82,8.81,0.11c1.644,1.483,2.74,3.477,3.11,5.66c1.37,5.96,0.23,12.18-0.91,18.2c2.89-2.54,5.87-5.12,9.48-6.43
		c1.634-0.598,3.373-0.853,5.11-0.75c0.34-3.326,1.218-6.575,2.6-9.62c1.169-2.918,3.19-5.417,5.8-7.17
		c2.69-1.6,6.36-1.82,8.81,0.11c1.644,1.483,2.74,3.477,3.11,5.66c1.37,5.96,0.23,12.18-0.91,18.2c2.89-2.54,5.87-5.12,9.48-6.43
		c1.634-0.598,3.373-0.853,5.11-0.75c0.34-3.326,1.218-6.575,2.6-9.62c1.169-2.918,3.19-5.417,5.8-7.17
		c2.69-1.6,6.36-1.82,8.81,0.11c1.644,1.483,2.74,3.477,3.11,5.66c1.37,5.96,0.23,12.18-0.91,18.2c2.89-2.54,5.87-5.12,9.48-6.43
		c1.634-0.598,3.373-0.853,5.11-0.75c0.34-3.326,1.218-6.575,2.6-9.62c1.169-2.918,3.19-5.417,5.8-7.17
		c2.69-1.6,6.36-1.82,8.81,0.11c1.644,1.483,2.74,3.477,3.11,5.66c1.37,5.96,0.23,12.18-0.91,18.2c2.89-2.54,5.87-5.12,9.48-6.43
		c1.634-0.598,3.373-0.853,5.11-0.75c0.34-3.326,1.218-6.575,2.6-9.62c1.169-2.918,3.19-5.417,5.8-7.17
		c2.69-1.6,6.36-1.82,8.81,0.11c1.644,1.483,2.74,3.477,3.11,5.66c1.37,5.96,0.23,12.18-0.91,18.2c2.89-2.54,5.87-5.12,9.48-6.43
		c1.634-0.598,3.373-0.853,5.11-0.75c0.34-3.326,1.218-6.575,2.6-9.62c1.169-2.918,3.19-5.417,5.8-7.17
		c2.69-1.6,6.36-1.82,8.81,0.11c1.644,1.483,2.74,3.477,3.11,5.66c1.37,5.96,0.23,12.18-0.91,18.2c2.89-2.54,5.87-5.12,9.48-6.43
		c1.634-0.598,3.373-0.853,5.11-0.75c0.34-3.326,1.218-6.575,2.6-9.62c1.169-2.918,3.19-5.417,5.8-7.17
		c2.69-1.6,6.36-1.82,8.81,0.11c1.644,1.483,2.74,3.477,3.11,5.66C542.019,619.896,542.231,621.895,542.215,623.899z"/>
	<path class="st7" d="M180.329,336.386c7.017-3.096,15.479-1.923,21.742,2.351c6.595,4.5,9.666,12.423,8.864,20.241
		c-0.445,4.486-2.263,8.726-5.206,12.14l1.061-0.439c-3.266-0.04-5.055-3.862-4.559-6.749c0.672-3.909,5.137-5.932,8.684-6.225
		c4.829-0.399,9.474,1.695,13.828,3.502c4.674,1.955,9.462,3.626,14.338,5.004c9.916,2.768,20.137,4.293,30.429,4.538
		c5.074,0.122,10.15-0.076,15.198-0.594c4.614-0.474,9.343-1.061,13.671-2.817c4.375-1.775,8.153-4.694,10.022-9.131
		c1.876-4.003,1.407-8.711-1.22-12.266c-0.594-0.584-1.549-0.576-2.132,0.018c-0.177,0.18-0.305,0.401-0.375,0.643
		c-1.4,6.922,0.177,14.113,4.345,19.814c4.437,6.094,11.408,9.833,18.939,10.159c8.488,0.458,16.788-2.831,24.159-6.728
		c7.703-4.072,14.73-9.288,22.562-13.135c7.554-3.71,16.257-6.443,24.661-4.217c6.699,1.774,13.78,7.625,11.569,15.316
		c-0.854,2.971-3.236,5.472-6.473,5.462c-2.746-0.008-5.915-1.744-6.246-4.714c-0.398-3.56,3.012-6.355,6.044-7.405
		c4.345-1.504,9.191-0.377,13.635,0c7.296,0.653,14.577-1.405,20.451-5.783c5.665-4.123,9.792-10.018,11.729-16.752
		c0.456-1.715,0.752-3.469,0.884-5.239c0.154-1.925-2.847-1.915-3,0c-0.747,7.291-4.38,13.981-10.089,18.578
		c-2.813,2.348-6.06,4.12-9.556,5.214c-3.799,1.085-7.781,1.378-11.698,0.861c-4.507-0.459-9.351-1.282-13.703,0.431
		c-3.333,1.312-6.551,3.916-7.465,7.528c-1.778,7.03,6.266,12.122,12.432,9.632c6.918-2.794,7.986-12.127,4.301-17.843
		c-4.429-6.87-13.267-9.542-21.073-9.031c-18.548,1.215-32.006,16.079-48.744,22.267c-7.898,2.92-17.02,4.049-24.572-0.473
		c-6.205-3.858-10.156-10.482-10.604-17.775c-0.103-1.801,0.033-3.608,0.404-5.373l-2.507,0.662
		c1.869,2.418,1.791,5.719,0.795,8.472c-1.211,3.083-3.529,5.602-6.501,7.065c-3.267,1.597-6.784,2.623-10.397,3.033
		c-4.005,0.581-8.039,0.937-12.084,1.067c-16.276,0.597-32.504-2.101-47.711-7.93c-6.853-2.632-14.115-6.694-21.66-4.455
		c-5.687,1.688-10.048,7.128-7.67,13.138c0.884,2.55,3.007,4.474,5.632,5.103c0.684,0.206,1.417,0.176,2.082-0.084
		c0.609-0.475,1.125-1.06,1.521-1.723c1.008-1.322,1.869-2.751,2.567-4.26c2.656-5.778,3.148-12.318,1.386-18.428
		c-4.179-14.186-20.9-21.136-34.205-15.266C177.052,334.574,178.577,337.159,180.329,336.386L180.329,336.386z"/>
	<path class="st8" d="M147.519,425.758c8.697,20.95,26.339,36.889,48.061,43.422c3.655,1.11,7.403,1.888,11.198,2.324
		c3.615,0.39,7.581,0.162,10.573-2.131c4.309-3.302,4.217-12.743-2.609-12.674c-3.374,0.034-6.198,3.125-6.617,6.335
		c-0.489,3.747,1.84,7.248,4.631,9.512c6.124,4.968,14.527,5.581,21.993,4.026c8.575-1.786,16.089-6.633,23.608-10.881
		c8.609-4.864,18.84-9.749,28.966-7.143c7.68,1.976,14.683,10.037,12.179,18.267l2.203-0.896c-3.334-1.511-4.144-5.689-2.835-8.885
		c1.639-4.001,6.429-5.495,10.404-5.492c5.24,0.004,10.08,2.435,14.731,4.579c4.28,2.014,8.726,3.653,13.29,4.899
		c17.998,4.678,37.06,2.987,53.954-4.786c4.146-1.877,8.093-4.167,11.78-6.836c2.917-2.151,6.286-5.916,3.935-9.692
		c-0.878-1.494-2.443-2.454-4.173-2.559c-2.053-0.011-2.953,1.415-3.594,3.156c-1.266,3.704-1.28,7.722-0.039,11.434
		c2.604,8.227,9.546,13.906,17.777,15.979c9.104,2.293,18.907,0.729,27.709-2.103c16.83-5.47,31.327-16.448,41.155-31.165
		c1.228-1.849,2.363-3.755,3.423-5.705c0.922-1.697-1.667-3.213-2.59-1.514c-8.073,14.717-20.809,26.334-36.206,33.021
		c-14.13,6.137-37.521,10.655-46.762-5.64c-1.914-3.213-2.723-6.964-2.304-10.68c0.167-1.176,0.545-4.581,2.271-3.47
		c1.954,1.258,0.892,3.48-0.351,4.809c-2.801,2.994-7.037,5.097-10.647,6.958c-3.87,1.99-7.909,3.635-12.068,4.916
		c-16.85,5.257-34.997,4.551-51.388-1.998c-8.697-3.562-18.624-9.885-28.054-4.659c-3.478,1.838-5.703,5.4-5.83,9.331
		c-0.104,3.543,1.567,7.181,4.9,8.692c0.737,0.409,1.667,0.143,2.076-0.594c0.053-0.096,0.096-0.197,0.128-0.302
		c1.877-6.168-0.721-12.622-5.274-16.921c-5.355-5.057-12.646-6.505-19.794-5.518c-16.237,2.241-28.008,15.557-43.901,18.611
		c-6.856,1.318-15.315,0.578-20.247-4.962c-2.204-2.475-3.448-7.488,0.672-8.945c3.023-1.07,3.968,2.515,3.294,4.72
		c-2.082,6.814-13.588,3.59-18.363,2.355c-6.567-1.71-12.854-4.353-18.671-7.847c-13.31-7.897-23.724-19.87-29.698-34.147
		C149.692,423.196,146.788,423.968,147.519,425.758L147.519,425.758z"/>
	<path class="st8" d="M83.364,552.996c22.998-4.334,51.274-8.7,68.525,11.277c3.422,3.879,5.786,8.575,6.865,13.634
		c0.456,2.274,1.029,4.799-1.281,6.204c-1.807,1.043-4.022,1.089-5.871,0.122c-5.039-2.795-2.232-10.232,1.561-12.668
		c5.164-3.318,11.808-1.901,17.109,0.258c5.75,2.343,11.19,5.338,17.009,7.546c5.5,2.085,11.139,3.782,16.877,5.079
		c11.884,2.692,24.086,3.713,36.252,3.032c11.798-0.538,23.45-2.831,34.573-6.802c4.257-1.588,8.686-3.882,11.278-7.761
		c2.446-3.539,2.314-8.256-0.325-11.654c-2.791-3.752-7.867-4.972-12.058-2.898c-1.879,1.015-3.406,2.576-4.378,4.477
		c-0.798,1.566-1.84,4.662-0.821,6.312c0.518,0.838,1.784,1.171,2.613,1.577c1.389,0.681,2.789,1.338,4.2,1.972
		c2.468,1.109,4.966,2.149,7.493,3.122c5.532,2.125,11.19,3.905,16.942,5.332c22.63,5.595,46.247,5.887,69.008,0.854
		c5.66-1.255,11.238-2.851,16.705-4.78c5.168-1.826,10.624-3.778,15.376-6.544c3.747-2.18,8.138-5.926,7.786-10.721
		c-0.295-3.644-3.437-6.392-7.088-6.198c-3.678,0.011-7.034,2.098-8.67,5.391c-2.036,4.617,0.001,9.877,2.971,13.563
		c6.414,7.96,17.355,10.819,27.171,10.721c11.375-0.113,22.159-3.706,32.709-7.613c11.816-4.376,24.151-9.233,36.987-8.457
		c11.568,0.699,22.467,7.542,34.213,6.122c10.196-1.233,16.18-9.392,18.825-18.681c1.195-4.529,2.012-9.15,2.443-13.814
		c0.214-1.916-2.787-1.9-3,0c-1.02,9.119-2.57,20.684-10.633,26.474c-9.778,7.022-22.51,0.834-32.758-1.661
		c-11.823-2.878-23.427-0.916-34.825,2.818c-11.227,3.678-22.035,8.706-33.73,10.805c-10.158,1.823-21.401,1.621-30.261-4.298
		c-4.353-2.908-9.545-8.626-7.542-14.353c1.144-3.272,7.104-5.95,9.525-2.516c3.565,5.055-5.397,9.846-8.839,11.43
		c-5.271,2.418-10.69,4.498-16.224,6.228c-36.22,11.299-75.408,8.136-109.347-8.826l0.743,1.295
		c-0.577-5.18,4.686-10.041,9.709-7.316c4.784,2.595,4.753,8.294,1.183,11.867c-3.516,3.519-8.559,5.086-13.199,6.48
		c-5.121,1.537-10.336,2.744-15.612,3.612c-22.157,3.609-44.875,1.295-65.85-6.708c-9.394-3.6-19.122-10.911-29.653-9.549
		c-4.201,0.543-8.263,2.581-10.446,6.335c-1.924,3.309-2.338,7.657-0.293,11.008c3.264,5.347,14.697,5.101,14.895-2.4
		c0.225-8.543-5.166-17.074-11.189-22.672c-18.756-17.435-45.516-13.275-68.452-8.953C80.671,550.46,81.474,553.352,83.364,552.996
		L83.364,552.996z"/>
	<path class="st9" d="M374.192,261.779c7.295-1.245,10.423-10.047,8.709-16.528c-1.114-4.214-3.729-7.831-6.635-11.001
		c-3.372-3.678-7.112-7.038-10.705-10.496c-4.393-4.229-8.787-8.458-13.18-12.688c-0.598-0.583-1.556-0.57-2.138,0.029
		c-0.173,0.178-0.299,0.395-0.369,0.633c-1.9,12.381,1.08,25.017,8.313,35.243c1.848,2.555,3.929,4.932,6.216,7.103
		c2.232,2.145,4.625,4.281,6.011,7.103l4.035,2.959c-0.134-0.793-0.334-1.574-0.599-2.333
		C373.964,261.807,374.079,261.799,374.192,261.779z"/>
	<path class="st7" d="M373.965,261.029h-3c1.576,3.207,0.932,8.087,0.713,11.564c-0.245,3.886-0.58,7.769-0.874,11.652
		c-0.661,8.732-1.323,17.463-1.984,26.195c-0.146,1.926,2.855,1.916,3,0l1.759-23.229c0.299-3.954,0.599-7.908,0.898-11.862
		C374.72,270.569,374.548,265.779,373.965,261.029z"/>
	<path class="st7" d="M374.177,261.369c1.281-3.781,0.866-7.93-1.137-11.382c-0.443-0.701-1.37-0.91-2.071-0.468
		c-0.667,0.421-0.894,1.287-0.52,1.982c1.606,2.751,1.912,6.072,0.835,9.071c-0.217,0.8,0.254,1.624,1.054,1.842
		C373.134,262.63,373.955,262.163,374.177,261.369L374.177,261.369z"/>
	<path class="st9" d="M257.192,258.779c7.295-1.245,10.423-10.047,8.709-16.528c-1.114-4.214-3.729-7.831-6.635-11.001
		c-3.372-3.678-7.112-7.038-10.705-10.496c-4.393-4.229-8.787-8.458-13.18-12.688c-0.598-0.583-1.556-0.57-2.138,0.029
		c-0.173,0.178-0.3,0.395-0.369,0.633c-1.9,12.381,1.08,25.017,8.313,35.243c1.848,2.555,3.929,4.932,6.216,7.103
		c2.232,2.145,4.625,4.281,6.011,7.103l4.035,2.959c-0.134-0.793-0.334-1.574-0.599-2.333
		C256.964,258.807,257.079,258.799,257.192,258.779z"/>
	<path class="st7" d="M256.965,258.029h-3c1.576,3.207,0.932,8.087,0.713,11.564c-0.245,3.886-0.58,7.769-0.874,11.652
		c-0.661,8.732-1.323,17.463-1.984,26.195c-0.146,1.926,2.855,1.916,3,0l1.759-23.229c0.299-3.954,0.599-7.908,0.898-11.862
		C257.72,267.569,257.549,262.779,256.965,258.029z"/>
	<path class="st7" d="M257.177,258.369c1.281-3.781,0.866-7.93-1.137-11.382c-0.443-0.701-1.37-0.911-2.071-0.468
		c-0.668,0.421-0.895,1.288-0.52,1.982c1.606,2.751,1.912,6.072,0.835,9.071c-0.22,0.799,0.249,1.625,1.048,1.845
		S256.957,259.168,257.177,258.369L257.177,258.369z"/>
	<path class="st9" d="M312.192,253.779c7.295-1.245,10.423-10.047,8.709-16.528c-1.114-4.214-3.729-7.831-6.635-11.001
		c-3.372-3.678-7.112-7.038-10.705-10.496c-4.393-4.229-8.787-8.458-13.18-12.688c-0.598-0.583-1.556-0.57-2.138,0.029
		c-0.173,0.178-0.3,0.395-0.369,0.633c-1.9,12.381,1.08,25.017,8.313,35.243c1.848,2.555,3.929,4.932,6.216,7.103
		c2.232,2.145,4.625,4.281,6.011,7.103l4.035,2.959c-0.134-0.793-0.334-1.574-0.599-2.333
		C311.964,253.807,312.079,253.799,312.192,253.779z"/>
	<path class="st7" d="M311.965,253.029h-3c1.576,3.207,0.932,8.087,0.713,11.564c-0.245,3.886-0.58,7.769-0.874,11.652
		c-0.661,8.732-1.323,17.463-1.984,26.195c-0.146,1.926,2.855,1.916,3,0l1.759-23.229c0.299-3.954,0.599-7.908,0.898-11.862
		C312.72,262.569,312.548,257.779,311.965,253.029z"/>
	<path class="st7" d="M312.177,253.369c1.281-3.781,0.866-7.93-1.137-11.382c-0.443-0.701-1.37-0.91-2.071-0.468
		c-0.667,0.421-0.894,1.287-0.52,1.982c1.606,2.751,1.912,6.072,0.835,9.071c-0.217,0.8,0.254,1.624,1.054,1.842
		C311.134,254.63,311.955,254.163,312.177,253.369L312.177,253.369z"/>
	<path class="st10" d="M354.387,432.264c-0.74-2.825-3.566-5.21-6.439-4.688c-2.309,0.419-4.01,2.536-4.648,4.794
		c-0.496,2.299-0.561,4.671-0.191,6.994c-2.576-2.71-5.257-5.492-8.705-6.938c-1.213-0.597-2.593-0.766-3.914-0.48
		c-1.838,0.671-3.097,2.376-3.197,4.33c-0.061,1.92,0.457,3.815,1.486,5.437c2.914,5.031,7.941,8.48,13.684,9.388l-0.929-1.213
		c4.72-1.646,8.697-4.926,11.211-9.246C354.203,438.112,355.127,435.089,354.387,432.264z"/>
	<path class="st10" d="M218.387,550.265c-0.74-2.825-3.566-5.21-6.439-4.688c-2.309,0.419-4.01,2.536-4.648,4.794
		c-0.496,2.299-0.561,4.671-0.191,6.994c-2.576-2.71-5.257-5.492-8.705-6.938c-1.213-0.597-2.593-0.766-3.914-0.48
		c-1.838,0.671-3.097,2.376-3.197,4.33c-0.061,1.92,0.457,3.815,1.486,5.437c2.914,5.031,7.941,8.48,13.684,9.388l-0.929-1.213
		c4.72-1.646,8.697-4.926,11.211-9.246C218.204,556.112,219.127,553.089,218.387,550.265z"/>
	<path class="st10" d="M242.387,374.264c-0.74-2.825-3.566-5.21-6.439-4.688c-2.309,0.419-4.01,2.536-4.648,4.794
		c-0.496,2.299-0.561,4.671-0.191,6.994c-2.576-2.71-5.257-5.492-8.705-6.938c-1.213-0.597-2.593-0.766-3.914-0.48
		c-1.838,0.671-3.097,2.376-3.197,4.33c-0.061,1.92,0.457,3.815,1.486,5.437c2.914,5.031,7.941,8.48,13.684,9.388l-0.929-1.213
		c4.72-1.646,8.697-4.926,11.211-9.246C242.204,380.112,243.127,377.089,242.387,374.264z"/>
	<path class="st7" d="M453.751,209.051c-2.474,10.87-3.65,23.193,2.949,32.92c2.805,4.173,6.921,7.291,11.698,8.862
		c4.835,1.434,9.933,1.747,14.906,0.916c11.255-1.559,21.259-7.422,32.328-9.698c4.885-1.004,10.069-1.336,14.772,0.597
		c3.523,1.448,7.235,4.361,7.252,8.515c0.017,4.266-3.688,7.097-7.372,8.409c-4.917,1.75-10.026,1.073-15.126,0.852
		c-5.492-0.238-11.093,0.259-15.656,3.623c-3.924,3.063-6.934,7.143-8.701,11.797c-2.293,5.566-3.224,11.55-4.691,17.358
		c-1.311,5.221-3.165,10.291-5.532,15.126c-4.645,9.476-11.156,17.917-19.144,24.815c-3.939,3.39-8.726,6.844-14.106,7.155
		c-4.15,0.24-9.194-1.504-10.793-5.707c-1.226-3.744,0.386-7.83,3.837-9.729c3.556-1.795,7.429,0.765,8.578,4.279
		c0.611,1.643,0.399,3.479-0.571,4.939c-1.078,1.608,1.519,3.111,2.59,1.514c2.487-3.708,1.187-8.695-1.859-11.666
		c-3.074-3.134-7.995-3.5-11.499-0.857c-3.597,2.738-5.227,7.349-4.153,11.74c1.279,4.617,5.816,7.553,10.346,8.281
		c5.594,0.898,10.978-1.3,15.493-4.476c4.531-3.27,8.65-7.076,12.269-11.333c7.357-8.461,12.888-18.351,16.246-29.049
		c3.302-10.581,3.542-24.559,13.354-31.705c5.049-3.677,11.235-3.269,17.155-2.932c5.226,0.298,10.323,0.244,15.117-2.122
		c3.958-1.953,7.152-5.559,7.218-10.152c0.067-4.637-3.226-8.366-7.105-10.479c-10.248-5.581-22.554-1.08-32.622,2.649
		c-10.124,3.75-21.684,8.151-32.443,4.205c-4.966-1.93-8.964-5.75-11.118-10.623c-2.605-5.525-2.976-11.795-2.374-17.791
		c0.355-3.175,0.906-6.324,1.65-9.431C457.072,207.969,454.18,207.166,453.751,209.051L453.751,209.051z"/>
	<path class="st10" d="M472.139,178.559c-2.967,9.905-7.439,19.295-13.26,27.84c-1.44,2.1-2.953,4.147-4.54,6.14
		c-1.233-2.241-2.727-4.329-4.45-6.22c-6.05-6.65-14.16-11-22.03-15.36c-7.87-4.36-15.86-9.04-21.42-16.11
		c-2.495-3.183-4.281-6.861-5.24-10.79c-1.26-5.33-0.78-10.89,2.33-15.34c4.52-6.47,13.53-8.75,21.19-6.88
		c7.67,1.87,14.09,7.2,19.07,13.32c-1.63-7.52,6.3-14.78,13.97-14.12c7.67,0.67,13.82,7.37,15.86,14.79
		C475.669,163.239,474.339,171.179,472.139,178.559z"/>
	<g class="st1">
		<path d="M458.879,206.399c-1.44,2.1-2.953,4.147-4.54,6.14c-1.233-2.241-2.727-4.329-4.45-6.22c-6.05-6.65-14.16-11-22.03-15.36
			c-7.87-4.36-15.86-9.04-21.42-16.11c-2.495-3.183-4.281-6.861-5.24-10.79c17.692,2.453,33.948,11.077,45.9,24.35
			C451.884,193.797,455.853,199.858,458.879,206.399z"/>
	</g>
	<path class="st3" d="M642.341,348.238c5.388-0.146,9.638-4.632,9.493-10.02c-0.016-0.575-0.082-1.147-0.198-1.71l28.784-18.355
		l-16.228-7.844l-24.795,18.662c-5.224,1.444-8.287,6.85-6.843,12.074C633.763,345.417,637.809,348.39,642.341,348.238
		L642.341,348.238z"/>
	<path class="st5" d="M648.209,258.919c0,0-16.896-13.663-10.191-23.357s23.826,0.862,23.826,0.862l49.839,56.652
		c0,0-52.941,48.053-51.299,40.916s-10.639-12.715-10.639-12.715l23.625-26.571l-5.182-2.512l2.114-1.216l-2.224-5.21
		L648.209,258.919z"/>
	<path class="st8" d="M782.379,641.749c0.002,0.655-0.499,1.188-1.119,1.19c-0.002,0-0.004,0-0.007,0l-212.855,0.03l-14.87,0.01
		l-9.809,0.01h-10.849l-5.921,0.01l-16.44,0.01l-258.665,0.14l-1.967,0.01l-115.702,0.04h-1.911l-98.487,0.04h-1.911l-30.742,0.01
		c-0.622,0-1.126-0.533-1.126-1.19s0.504-1.19,1.126-1.19l31.063-0.01H34.1l98.458-0.04h1.911l114.803-0.04h1.958l97.825-0.04h1.286
		l158.371-0.1l16.411-0.01l7.51-0.01l11.871-0.01h10.14l15.976-0.01l210.632-0.04c0.62-0.002,1.124,0.528,1.126,1.183
		C782.379,641.744,782.379,641.747,782.379,641.749z"/>
	<path class="st2" d="M663.648,164.486c-2.168-3.324-4.558-6.838-8.239-8.323c-3.68-1.485-8.9,0.291-9.4,4.228
		c-0.374,2.943,1.872,5.471,3.562,7.909s2.79,6.118,0.581,8.099l-1.242,0.641c2.408,3.111,6.149,4.896,10.082,4.811
		c3.86-0.244,7.581-3.11,8.232-6.923C667.86,171.21,665.708,167.646,663.648,164.486z"/>
</g>
</svg>
