<?xml version="1.0" encoding="iso-8859-1"?>
<!-- Uploaded to: SVG Repo, www.svgrepo.com, Generator: SVG Repo Mixer Tools -->
<svg fill="#2f2e41" height="800px" width="800px" version="1.1" id="Layer_1" xmlns="http://www.w3.org/2000/svg" xmlns:xlink="http://www.w3.org/1999/xlink" 
	 viewBox="0 0 512 512" xml:space="preserve">
<g>
	<g>
		<path d="M256,0C114.616,0,0,114.615,0,256c0,141.384,114.616,256,256,256c141.385,0,256-114.616,256-256
			C512,114.615,397.385,0,256,0z M416.548,102.2c26.32,27.464,45.562,61.618,55.121,99.647
			c-61.817-52.591-148.836-43.432-203.851,11.569C270.115,141.759,330.448,81.596,416.548,102.2z M260.896,33.64
			c39.906,0.875,77.164,12.32,109.274,31.616c-80.879,6.555-135.828,74.396-135.926,152.154
			C185.35,165.149,185.062,80.117,260.896,33.64z M102.201,95.452c27.463-26.319,61.616-45.561,99.643-55.121
			c-52.604,61.831-43.408,148.853,11.571,203.846C141.576,241.874,81.641,181.354,102.201,95.452z M65.255,141.826
			c6.537,80.653,74.135,135.827,152.155,135.925c-52.331,48.963-137.352,49.087-183.771-26.65
			C34.513,211.194,45.961,173.938,65.255,141.826z M95.45,409.797c-26.318-27.463-45.56-61.617-55.119-99.644
			c62.036,52.771,149.052,43.209,203.848-11.57C241.872,370.517,181.27,430.332,95.45,409.797z M251.099,478.36
			c-39.907-0.875-77.167-12.324-109.279-31.62c80.932-6.554,135.834-74.446,135.932-152.152
			C326.593,346.784,326.999,431.835,251.099,478.36z M409.797,416.55c-27.464,26.319-61.619,45.561-99.647,55.119
			c52.611-61.845,43.408-148.861-11.567-203.852C370.588,270.128,430.307,330.788,409.797,416.55z M294.588,234.246
			c52.362-48.992,137.366-49.053,183.771,26.653c-0.873,39.909-12.321,77.17-31.619,109.282
			C440.17,289.039,372.079,234.346,294.588,234.246z"/>
	</g>
</g>
</svg>