<?xml version="1.0" encoding="iso-8859-1"?>
<!-- Uploaded to: SVG Repo, www.svgrepo.com, Generator: SVG Repo Mixer Tools -->
<svg fill="#2f2e41" height="800px" width="800px" version="1.1" id="Layer_1" xmlns="http://www.w3.org/2000/svg" xmlns:xlink="http://www.w3.org/1999/xlink" 
	 viewBox="0 0 512 512" xml:space="preserve">
<g>
	<g>
		<path d="M444.646,213.446c-5.882-75.607-56.681-140.806-128.734-164.803C310.097,20.9,285.446,0,256,0
			s-54.096,20.898-59.913,48.641C124.034,72.635,73.236,137.835,67.354,213.445c-29.059,7.233-50.658,33.549-50.658,64.816
			c0,32.028,22.667,58.851,52.798,65.298L95.13,471.737C99.795,495.066,120.451,512,144.244,512c20.697,0,218.47,0,223.512,0
			c23.792,0,44.448-16.934,49.114-40.264l25.636-128.177c30.131-6.447,52.798-33.27,52.798-65.298
			C495.304,246.994,473.706,220.679,444.646,213.446z M256,33.391c15.058,0,27.352,12.024,27.805,26.975
			c-0.043,0.666-0.043,1.327-0.007,1.982c-0.597,14.82-12.835,26.695-27.798,26.695c-14.965,0-27.202-11.875-27.797-26.696
			c0.036-0.656,0.037-1.317-0.007-1.982C228.648,45.416,240.942,33.391,256,33.391z M198.861,83.15
			c8.84,22.95,31.112,39.285,57.139,39.285s48.298-16.334,57.138-39.283c57.229,22.518,96.412,77.269,98.584,139.56l-11.703,11.703
			c-6.527,6.526-17.085,6.526-23.611,0l-19.561-19.56c-19.528-19.531-51.306-19.528-70.833,0l-19.561,19.56
			c-6.51,6.509-17.102,6.509-23.611,0l-19.561-19.56c-19.528-19.531-51.306-19.528-70.833,0l-19.561,19.56
			c-6.51,6.509-17.102,6.509-23.611,0l-9.075-9.075C101.349,161.959,140.829,105.981,198.861,83.15z M144.244,478.609
			c-7.93,0-14.817-5.644-16.372-13.421l-24.028-120.144h64.699l13.357,133.565H144.244z M296.543,478.609h-81.085l-13.357-133.565
			h107.798L296.543,478.609z M384.128,465.187c-1.555,7.777-8.44,13.422-16.372,13.422h-37.655l13.357-133.565h64.699
			L384.128,465.187z M428.522,311.652c-38.657,0-339.147,0-345.043,0c-18.412,0-33.391-14.979-33.391-33.391
			c0-15.09,10.063-27.866,23.827-31.989c12.708,12.707,23.508,26.424,47.171,26.424c13.379,0,25.956-5.21,35.417-14.671
			l19.561-19.56c6.51-6.51,17.102-6.508,23.611,0l19.561,19.56c19.528,19.531,51.305,19.528,70.833,0l19.561-19.56
			c6.51-6.51,17.102-6.508,23.611,0l19.561,19.56c19.528,19.531,51.305,19.528,70.833,0l12.314-12.314
			c14.849,3.386,25.967,16.69,25.967,32.55C461.913,296.673,446.934,311.652,428.522,311.652z"/>
	</g>
</g>
</svg>