<?xml version="1.0" encoding="utf-8"?>
<!-- Generator: Adobe Illustrator 27.6.1, SVG Export Plug-In . SVG Version: 6.00 Build 0)  -->
<svg version="1.1" id="Ebene_1" xmlns="http://www.w3.org/2000/svg" xmlns:xlink="http://www.w3.org/1999/xlink" x="0px" y="0px"
	 viewBox="0 0 375 375" style="enable-background:new 0 0 375 375;" xml:space="preserve">
<style type="text/css">
	.st0{fill:none;stroke:#FFFFFF;stroke-width:7;stroke-miterlimit:10;}
	.st1{font-family:'MyriadPro-Regular';}
	.st2{font-size:75.7165px;}
	.st3{fill:none;stroke:#FFFFFF;stroke-width:11;stroke-miterlimit:10;}
</style>
<g>
	<text transform="matrix(0.786 0 0 1 115.5373 350.0701)" class="st0 st1 st2">NATA</text>
	<path class="st3" d="M106.07,82.488c0.413-5.075,3.895-40.709,33.913-60.522C170.977,1.509,216.274,7.15,240.157,35.531
		c20.558,24.43,16.506,55.32,15.652,61.043c6.386-0.834,49.686-5.8,79.826,24c35.335,34.936,33.599,98.882,1.043,129.913
		c-20.531,19.569-61.658,33.995-82.902,13.775c-19.544-18.603-9.672-54.548-9.054-56.688c0.118-2.658,1.023-17.503,12.652-25.957
		c1.786-1.298,10.847-7.884,19.438-4.757c0,0,4.724,1.72,7.693,6.322c11.085,17.184-28.949,84.91-55.723,79.391
		c-4.853-1.001-14.758-5.539-22.538-31.826c0,0,34.435-48.609,21.391-55.732c-13.043-7.123-27.13,88.746-27.13,88.746
		c-6.214-41.871-17.751-132.654,0.084-150.786c2.556-2.599,10.505-10.68,14.467-8.628c2.578,1.335,2.581,6.499,2.145,11.008
		c-2.567,26.529-32.022,151.118-40.069,148.383c-4.757-1.616,6.226-44.917,3.025-45.601c-1.066-0.228-2.762,4.475-4.186,7.716
		c-8.624,19.633-31.379,40.512-44.336,37.153c-16.737-4.339-27.469-51.802-7.826-73.565c1.6-1.773,11.463-12.306,24.583-10.962
		c11.934,1.222,21.436,11.744,24.46,21.397c6.877,21.953-16.014,51.342-41.217,63.13c-28.491,13.326-61.898,5.079-83.351-11.187
		c-38.897-29.491-44.807-90.59-20.103-126.28c1.832-2.647,20.528-28.802,51.802-32.099c7.044-0.742,30.45-3.214,40.174,12
		c8.612,13.474,4.314,37.159-10.435,43.304c-10.862,4.526-22.588-2.462-24.522-3.652 M53.896,278.14l45.913,87.13h181.608
		l43.914-87.13"/>
</g>
</svg>
